<?xml version="1.0" encoding="UTF-8" standalone="no"?>
<!-- Created with Inkscape (http://www.inkscape.org/) -->

<svg
   width="800"
   height="600"
   id="svg2"
   version="1.1"
   inkscape:version="1.3 (0e150ed6c4, 2023-07-21)"
   sodipodi:docname="air_capacitor.svg"
   xmlns:inkscape="http://www.inkscape.org/namespaces/inkscape"
   xmlns:sodipodi="http://sodipodi.sourceforge.net/DTD/sodipodi-0.dtd"
   xmlns="http://www.w3.org/2000/svg"
   xmlns:svg="http://www.w3.org/2000/svg"
   xmlns:rdf="http://www.w3.org/1999/02/22-rdf-syntax-ns#"
   xmlns:cc="http://creativecommons.org/ns#"
   xmlns:dc="http://purl.org/dc/elements/1.1/">
  <sodipodi:namedview
     id="base"
     pagecolor="#ffffff"
     bordercolor="#666666"
     borderopacity="1.0"
     inkscape:pageopacity="0.0"
     inkscape:pageshadow="2"
     inkscape:zoom="1.8854879"
     inkscape:cx="397.77504"
     inkscape:cy="297.27054"
     inkscape:document-units="px"
     inkscape:current-layer="layer1"
     showgrid="false"
     inkscape:window-width="2560"
     inkscape:window-height="1369"
     inkscape:window-x="-8"
     inkscape:window-y="-8"
     inkscape:window-maximized="1"
     showguides="true"
     inkscape:guide-bbox="true"
     fit-margin-left="30"
     fit-margin-right="30"
     fit-margin-top="20"
     fit-margin-bottom="20"
     inkscape:showpageshadow="2"
     inkscape:pagecheckerboard="0"
     inkscape:deskcolor="#d1d1d1" />
  <defs
     id="defs4">
    <marker
       inkscape:stockid="Arrow2MstartF9"
       orient="auto"
       refY="0"
       refX="0"
       id="Arrow2MstartF9"
       style="overflow:visible">
      <path
         id="path8749"
         style="font-size:12px;fill:#000000;fill-rule:evenodd;stroke:#000000;stroke-width:0.625;stroke-linejoin:round"
         d="M 8.7185878,4.0337352 -2.2072895,0.01601326 8.7185884,-4.0017078 c -1.7454984,2.3720609 -1.7354408,5.6174519 -6e-7,8.035443 z"
         transform="scale(0.6)"
         inkscape:connector-curvature="0" />
    </marker>
    <marker
       inkscape:stockid="Arrow2Mendgt"
       orient="auto"
       refY="0"
       refX="0"
       id="Arrow2Mendgt"
       style="overflow:visible">
      <path
         id="path8752"
         style="font-size:12px;fill:#000000;fill-rule:evenodd;stroke:#000000;stroke-width:0.625;stroke-linejoin:round"
         d="M 8.7185878,4.0337352 -2.2072895,0.01601326 8.7185884,-4.0017078 c -1.7454984,2.3720609 -1.7354408,5.6174519 -6e-7,8.035443 z"
         transform="scale(-0.6)"
         inkscape:connector-curvature="0" />
    </marker>
  </defs>
  <metadata
     id="metadata7">
    <rdf:RDF>
      <cc:Work
         rdf:about="">
        <dc:format>image/svg+xml</dc:format>
        <dc:type
           rdf:resource="http://purl.org/dc/dcmitype/StillImage" />
      </cc:Work>
    </rdf:RDF>
  </metadata>
  <g
     inkscape:label="1. réteg"
     inkscape:groupmode="layer"
     id="layer1"
     transform="translate(-240.61394,-472.53903)">
    <g
       id="g1"
       transform="matrix(4,0,0,4,-721.84181,-1417.6171)"
       style="stroke-width:0.25">
      <rect
         style="fill:#ffffff;fill-opacity:0.411765;stroke:none;stroke-width:0.12485"
         id="rect3024"
         width="200"
         height="150"
         x="240.61394"
         y="472.53903" />
      <path
         sodipodi:nodetypes="zzccscczz"
         id="path3405"
         style="fill:#a0a0ff;fill-opacity:0.501961;stroke:#0000ff;stroke-width:0.175;stroke-linecap:round;stroke-linejoin:round;stroke-miterlimit:4;stroke-dasharray:none;stroke-opacity:1"
         d="m 340.7287,543.4495 c 3.1478,-0.027 6.51478,-1.57221 8.66752,-3.7633 2.15273,-2.19109 3.43071,-5.49988 3.43071,-8.29967 l 74.75951,-0.009 c 0,47.93624 -38.875,86.81124 -86.81125,86.81124 -47.93625,0 -86.81125,-38.875 -86.81125,-86.81124 l 74.56681,0.009 c 0.0955,3.61545 1.29014,6.26134 3.47727,8.45328 2.18712,2.19194 5.57288,3.63671 8.72068,3.60969 z"
         inkscape:connector-curvature="0" />
      <path
         sodipodi:nodetypes="aaccssccaa"
         id="path3413"
         style="fill:#ffa0a0;fill-opacity:0.501961;stroke:#ff0000;stroke-width:0.175;stroke-linecap:round;stroke-linejoin:round;stroke-miterlimit:4;stroke-dasharray:none;stroke-opacity:1"
         d="m 333.32194,523.67529 c 2.02409,-1.84814 4.92018,-3.10427 7.6588,-2.99259 2.93866,0.11987 5.54329,0.79357 7.92951,3.86962 l 56.28994,-47.23966 c 12.69,15.1225 19.65625,34.265 19.65625,54.01375 0,46.40125 -37.63,84.03125 -84.03125,84.03125 -24.8375,0 -48.4125,-10.9975 -64.375,-30.0175 l 56.17174,-47.12047 c -2.49824,-2.57663 -2.70406,-5.37478 -2.45674,-8.22562 0.2035,-2.34566 1.41803,-4.73121 3.15675,-6.31878 z"
         inkscape:connector-curvature="0" />
      <g
         id="g3407"
         transform="matrix(-1.25,0,0,-1.25,340.82519,371.32641)"
         style="stroke-width:0.25" />
      <g
         id="g3427"
         transform="matrix(-1.0829946,0,0,-1.1312529,335.5281,526.26116)"
         style="fill:#808080;stroke:#000000;stroke-width:0.112932;stroke-miterlimit:4;stroke-dasharray:0.451728, 0.451728;stroke-dashoffset:0">
        <path
           inkscape:connector-curvature="0"
           d="M 0,0 23.642,23.75"
           style="fill:#808080;stroke:#000000;stroke-width:0.112932;stroke-linecap:round;stroke-linejoin:round;stroke-miterlimit:4;stroke-dasharray:0.451728, 0.451728;stroke-dashoffset:0;stroke-opacity:1"
           id="path3429" />
      </g>
      <g
         style="fill:none;stroke:#000000;stroke-width:0.3;stroke-miterlimit:4;stroke-dasharray:none"
         id="g3435"
         transform="matrix(-1.25,0,0,-1.25,403.71644,505.80766)">
        <path
           inkscape:connector-curvature="0"
           d="m 0,0 c -2.62,-6.433 -3.976,-13.325 -3.976,-20.275 0,-29.63 24.029,-53.659 53.659,-53.659 10.082,0 19.98,2.849 28.516,8.201"
           style="fill:none;stroke:#000000;stroke-width:0.3;stroke-linecap:butt;stroke-linejoin:miter;stroke-miterlimit:4;stroke-dasharray:none;stroke-opacity:1;marker-start:url(#Arrow2MstartF9);marker-end:url(#Arrow2Mendgt)"
           id="path3437" />
      </g>
      <path
         id="path3449"
         style="fill:#000000;fill-opacity:1;fill-rule:evenodd;stroke:none;stroke-width:0.25"
         d="m 345.36144,527.41141 c -2.15625,-2.57 -5.98875,-2.905 -8.5575,-0.74875 -2.57,2.15625 -2.905,5.9875 -0.74875,8.5575 2.15625,2.56875 5.9875,2.905 8.5575,0.74875 2.56875,-2.15625 2.905,-5.98875 0.74875,-8.5575"
         inkscape:connector-curvature="0" />
      <g
         id="g3451"
         transform="matrix(-1.25,0,0,-1.25,400.89394,335.63141)"
         style="stroke-width:0.25" />
      <g
         id="g3455"
         transform="matrix(-1.25,0,0,-1.25,395.82769,336.34141)"
         style="stroke-width:0.25" />
      <g
         id="g3459"
         transform="matrix(-1.25,0,0,-1.25,394.16019,341.22141)"
         style="stroke-width:0.25" />
      <g
         id="g3463"
         transform="matrix(-1.25,0,0,-1.25,390.49644,344.45891)"
         style="stroke-width:0.25" />
      <g
         id="g3467"
         transform="matrix(-1.25,0,0,-1.25,384.93519,345.38391)"
         style="stroke-width:0.25" />
      <g
         id="g3471"
         transform="matrix(-1.25,0,0,-1.25,383.26769,350.26391)"
         style="stroke-width:0.25" />
      <g
         id="g3475"
         transform="matrix(-1.25,0,0,-1.25,375.94894,354.04266)"
         style="stroke-width:0.25" />
      <g
         id="g3479"
         transform="matrix(-1.25,0,0,-1.25,376.38894,356.05141)"
         style="stroke-width:0.25" />
      <g
         id="g3483"
         transform="matrix(-1.25,0,0,-1.25,373.65769,358.24266)"
         style="stroke-width:0.25" />
      <g
         id="g3487"
         transform="matrix(-1.25,0,0,-1.25,304.92144,381.82016)"
         style="stroke-width:0.25" />
      <g
         id="g3491"
         transform="matrix(-1.25,0,0,-1.25,302.90644,382.77266)"
         style="stroke-width:0.25" />
      <g
         id="g3495"
         transform="matrix(-1.25,0,0,-1.25,300.18644,382.77266)"
         style="stroke-width:0.25" />
      <g
         id="g3499"
         transform="matrix(-1.25,0,0,-1.25,296.39894,380.08266)"
         style="stroke-width:0.25" />
      <g
         id="g3503"
         transform="matrix(-1.25,0,0,-1.25,291.99894,382.77266)"
         style="stroke-width:0.25" />
      <g
         id="g3507"
         transform="matrix(-1.25,0,0,-1.25,283.95394,381.00391)"
         style="stroke-width:0.25" />
      <g
         id="g3511"
         transform="matrix(-1.25,0,0,-1.25,283.00894,382.83016)"
         style="stroke-width:0.25" />
      <g
         id="g3515"
         transform="matrix(-1.25,0,0,-1.25,279.50769,382.77266)"
         style="stroke-width:0.25" />
      <g
         id="g3519"
         transform="matrix(-1.25,0,0,-1.25,309.81894,332.07141)"
         style="stroke-width:0.25" />
      <g
         id="g3523"
         transform="matrix(-1.25,0,0,-1.25,302.33019,334.65266)"
         style="stroke-width:0.25" />
      <g
         id="g3527"
         transform="matrix(-1.25,0,0,-1.25,301.61519,336.42141)"
         style="stroke-width:0.25" />
      <g
         id="g3531"
         transform="matrix(-1.25,0,0,-1.25,295.06894,336.57266)"
         style="stroke-width:0.25" />
      <g
         id="g3535"
         transform="matrix(-1.25,0,0,-1.25,287.03269,334.65266)"
         style="stroke-width:0.25" />
      <g
         id="g3539"
         transform="matrix(-1.25,0,0,-1.25,286.32519,336.42141)"
         style="stroke-width:0.25" />
      <g
         id="g3543"
         transform="matrix(-1.25,0,0,-1.25,281.70644,336.48016)"
         style="stroke-width:0.25" />
      <text
         xml:space="preserve"
         style="font-style:normal;font-variant:normal;font-weight:normal;font-stretch:normal;line-height:0%;font-family:Arial;-inkscape-font-specification:Arial;text-align:start;letter-spacing:0px;word-spacing:0px;writing-mode:lr-tb;text-anchor:start;fill:#000000;fill-opacity:1;stroke:none;stroke-width:0.25"
         x="281.66061"
         y="497.61169"
         id="text8503"><tspan
           sodipodi:role="line"
           id="tspan8505"
           x="281.66061"
           y="497.61169"
           style="font-size:12px;line-height:0;stroke-width:0.25">shaft</tspan></text>
      <text
         xml:space="preserve"
         style="font-style:normal;font-variant:normal;font-weight:normal;font-stretch:normal;line-height:0%;font-family:Arial;-inkscape-font-specification:Arial;text-align:start;letter-spacing:0px;word-spacing:0px;writing-mode:lr-tb;text-anchor:start;fill:#0000ff;fill-opacity:1;stroke:none;stroke-width:0.25"
         x="276.91837"
         y="542.10339"
         id="text8507"><tspan
           sodipodi:role="line"
           id="tspan8509"
           x="276.91837"
           y="542.10339"
           style="font-size:12px;line-height:0;stroke-width:0.25">stator</tspan></text>
      <text
         transform="rotate(-40)"
         id="text8851"
         y="636.58777"
         x="-47.327423"
         style="font-style:normal;font-variant:normal;font-weight:normal;font-stretch:normal;line-height:0%;font-family:Arial;-inkscape-font-specification:Arial;text-align:start;letter-spacing:0px;word-spacing:0px;writing-mode:lr-tb;text-anchor:start;fill:#ff0000;fill-opacity:1;stroke:none;stroke-width:0.25"
         xml:space="preserve"><tspan
           y="636.58777"
           x="-47.327423"
           id="tspan8853"
           sodipodi:role="line"
           style="font-size:12px;line-height:0;stroke-width:0.25">rotor</tspan></text>
    </g>
  </g>
</svg>
